<svg width="21" height="20" viewBox="0 0 21 20" fill="none" xmlns="http://www.w3.org/2000/svg">
<path d="M11.6391 0.599915L13.8949 5.17063C14.0517 5.48853 14.355 5.7088 14.7059 5.7597L19.7501 6.4927C20.6337 6.62119 20.9862 7.70672 20.3471 8.32958L16.6971 11.8874C16.4435 12.1348 16.3275 12.4914 16.3876 12.8406L17.2491 17.8644C17.4001 18.7443 16.4764 19.4151 15.6863 19L11.1748 16.6283C10.8611 16.4635 10.486 16.4635 10.1723 16.6283L5.66083 19C4.87067 19.4155 3.94702 18.7443 4.09804 17.8644L4.95953 12.8406C5.01961 12.4914 4.90363 12.1348 4.64998 11.8874L1 8.32958C0.360868 7.7063 0.713392 6.62077 1.597 6.4927L6.64122 5.7597C6.99207 5.7088 7.29537 5.48853 7.45223 5.17063L9.70797 0.599915C10.1026 -0.200669 11.2441 -0.200669 11.6391 0.599915Z" fill="#8F00FF"/>
</svg>
